<svg viewBox="0 0 74 74" xmlns="http://www.w3.org/2000/svg" xmlns:xlink="http://www.w3.org/1999/xlink"><defs><linearGradient x1="0%" y1="50%" x2="100%" y2="50%" id="a"><stop stop-color="#382AD2" offset="0%"/><stop stop-color="#4274EE" offset="100%"/></linearGradient><linearGradient x1="0%" y1="50%" x2="100%" y2="50%" id="c"><stop stop-color="#382AD2" offset="0%"/><stop stop-color="#4274EE" offset="100%"/></linearGradient><path d="M27.028 32.729 26.521 30h5.958l-.507 2.729h-4.944ZM25 43.519l1.901-8.062h5.324L34 43.52 29.563 46 25 43.52Z" id="b"/></defs><g fill-rule="nonzero" fill="none"><path d="M58.878 48.748c.367 4.584-2.573 8.796-6.983 9.91-4.41 1.24-8.943-.99-10.904-5.079h-19.6c-2.94 0-5.391-2.477-5.391-5.45V26.45C16 23.478 18.45 21 21.39 21h32.22c1.47 0 2.817.62 3.797 1.61A5.465 5.465 0 0 1 59 26.45V48.13c-.122.248-.122.372-.122.62Z" fill="url(#a)"/><path d="M49 57c3.818 0 7-3.182 7-7s-3.182-7-7-7-7 3.182-7 7 3.055 7 7 7Z" fill="#FFF"/><path d="m48.123 50.25 3.718-3.875c.48-.5 1.32-.5 1.8 0 .479.5.479 1.375 0 1.875L48.122 54l-3.718-3.875c-.36-.375-.48-.875-.36-1.375s.48-.875.96-1 .96 0 1.319.375l1.799 2.125Z" fill="#FFB300"/><path d="m34.625 33.588.625-3.356c.125-.746-.125-1.616-.625-2.238-.5-.621-1.25-.994-2.125-.994h-5.875c-.75 0-1.625.373-2.125.994-.5.622-.75 1.368-.625 2.238l.625 3.48L22 44.774 29.5 49l7.5-4.226-2.375-11.186Z" fill="#FFF"/><g><use fill="#2371F5" xlink:href="#b"/><use fill="url(#c)" xlink:href="#b"/></g><path d="M42.375 28c-.75 0-1.375.606-1.375 1.333 0 .728.625 1.334 1.375 1.334h8.25c.75 0 1.375-.606 1.375-1.334 0-.727-.625-1.333-1.375-1.333h-8.25Zm0 5.333c-.75 0-1.375.606-1.375 1.334 0 .727.625 1.333 1.375 1.333h5.5c.75 0 1.375-.606 1.375-1.333 0-.728-.625-1.334-1.375-1.334h-5.5Z" fill="#FFF"/><path d="M42 16.882c-.97.353-1.697 1.06-1.94 2V19v-.118c-.242-.94-1.09-1.647-1.939-1.882H38h.121c.97-.235 1.697-1.059 1.94-1.882V15v.118c.242.706.97 1.529 1.939 1.764Z" fill="#5D8EF9"/><path d="m13.911 34.444.251.123-.251.123c-1.634.37-2.89 1.723-3.267 3.199v.123l-.126-.246c-.377-1.6-1.759-2.83-3.267-3.199H7l.251-.123c1.634-.369 2.89-1.722 3.267-3.198l.126-.246v.246c.503 1.476 1.76 2.83 3.267 3.198ZM30.749 58.31l.251.123-.251.123c-1.634.369-2.89 1.722-3.267 3.198l-.126.246-.126-.246c-.377-1.6-1.759-2.83-3.267-3.198l-.251-.123.251-.123c1.634-.37 2.89-1.723 3.267-3.199l.126-.246.126.246c.25 1.6 1.633 2.83 3.267 3.199Z" fill="#FFB300"/><path d="M63.754 22.271H64h-.246c-1.232.372-2.095 1.365-2.341 2.48V25v-.248c-.37-1.24-1.232-2.109-2.34-2.357h-.247.246c1.232-.372 2.095-1.24 2.341-2.356v-.248.248c.123 1.116 1.109 1.984 2.34 2.232Zm-7.761-8.682.37.124-.37.124c-1.971.496-3.696 2.109-4.189 4.217l-.123.372-.123-.372c-.493-1.984-2.094-3.72-4.188-4.217l-.37-.124.37-.124c1.97-.496 3.695-2.108 4.188-4.217L51.68 9l.123.372c.493 2.109 2.095 3.597 4.189 4.217Z" fill="#5D8EF9"/></g></svg>