<svg viewBox="0 0 52 52" xmlns="http://www.w3.org/2000/svg"><defs><linearGradient x1="0%" y1="50%" x2="100%" y2="50%" id="a"><stop stop-color="#382AD2" offset="0%"/><stop stop-color="#4274EE" offset="100%"/></linearGradient></defs><g fill-rule="nonzero" fill="none"><path d="M42.429 50H9.57C5.957 50 3 47.048 3 43.44V15.56C3 11.952 5.957 9 9.571 9H42.43C46.043 9 49 11.952 49 15.56v27.88c0 3.608-2.957 6.56-6.571 6.56Z" fill-opacity=".14" fill="#4170EC"/><path d="M27.5 48h-13C10.925 48 8 45.043 8 41.429V8.57C8 4.957 10.925 2 14.5 2h13C31.075 2 34 4.957 34 8.571V41.43C34 45.043 31.075 48 27.5 48Z" fill="url(#a)"/><path d="M19.349 31.777h-4.762c-.873 0-1.587-.73-1.587-1.623 0-.892.714-1.623 1.587-1.623h4.762c.873 0 1.587.73 1.587 1.623s-.714 1.623-1.587 1.623ZM22.524 39h-7.937C13.714 39 13 38.27 13 37.377s.714-1.623 1.587-1.623h7.937c.873 0 1.587.73 1.587 1.623S23.397 39 22.524 39Zm-5.238-21.505.317-2.272c.08-.163 0-.325-.159-.487l-1.587-1.542c-.317-.325-.317-.73-.238-1.136.08-.406.397-.65.794-.73l2.142-.325c.16-.082.318-.082.397-.325l.953-2.029c.238-.406.476-.649.873-.649.396 0 .714.243.873.65l.952 2.028c.08.162.159.325.397.325l2.142.324c.397.081.715.325.794.73.159.325 0 .812-.238 1.137l-1.587 1.623c-.08.08-.159.324-.159.487l.397 2.19c.08.407-.08.812-.397 1.056-.317.243-.714.324-1.111.08l-1.905-1.054a.496.496 0 0 0-.476 0l-1.905 1.136c-.396.243-.793.162-1.11-.081-.08-.325-.239-.73-.16-1.136Z" fill="#FFF"/><path d="M33 21c5.542 0 10.442 3.52 14.699 10.477a1.888 1.888 0 0 1 0 2.046C43.36 40.48 38.462 44 33 44s-10.442-3.52-14.699-10.477a1.888 1.888 0 0 1 0-2.046C22.558 24.52 27.458 21 33 21Zm0 4.584c-3.695 0-6.747 3.11-6.747 6.875s3.052 6.876 6.747 6.876 6.747-3.11 6.747-6.876c0-3.765-3.052-6.875-6.747-6.875Zm0 11.459c2.49 0 4.498-2.047 4.498-4.584 0-2.537-2.008-4.584-4.498-4.584s-4.498 2.047-4.498 4.584c0 2.537 2.008 4.584 4.498 4.584Z" fill="#FFB300"/></g></svg>