<svg viewBox="0 0 60 60" xmlns="http://www.w3.org/2000/svg"><defs><linearGradient x1="0%" y1="50%" x2="100%" y2="50%" id="a"><stop stop-color="#382AD2" offset="0%"/><stop stop-color="#4274EE" offset="100%"/></linearGradient></defs><g fill-rule="nonzero" fill="none"><path d="m20.636 36.623 1.523-.821 5.858 3.285v-8.099l-1.172-.587-5.858-3.403v6.693l-1.289.704-4.921-2.817-5.858 3.285v6.806l5.858 3.287 5.859-3.287v-5.046Zm17.926-2.23-1.171-.703V27l-7.03 3.99v8.096l5.859-3.285 1.523.821v5.046l5.858 3.287 5.858-3.287v-6.806l-5.858-3.286-5.039 2.817ZM22.16 25.01 29.19 29l1.171-.704 5.858-3.286-5.858-3.286v-.822l4.686-2.699v-6.69L29.19 8.107l-5.858 3.403V18.2l4.687 2.699v.821l-5.859 3.29Z" fill="url(#a)"/><g fill="#FFB300"><path d="M38.563 13.274v5.394l6.209 3.403v6.103l.586.352 4.1 2.347V19.256zM35.048 44.137l-5.858 3.168-5.858-3.168-.938.587-3.866 2.112 10.662 5.867 10.662-5.867-3.866-2.112zM13.607 28.177v-6.102l6.21-3.403v-5.398L8.919 19.256v11.617l4.1-2.347z"/></g></g></svg>