<svg viewBox="0 0 48 54" xmlns="http://www.w3.org/2000/svg" xmlns:xlink="http://www.w3.org/1999/xlink"><defs><linearGradient x1="0%" y1="50%" x2="100%" y2="50%" id="a"><stop stop-color="#382AD2" offset="0%"/><stop stop-color="#4274EE" offset="100%"/></linearGradient><linearGradient x1="0%" y1="50%" x2="100%" y2="50%" id="c"><stop stop-color="#382AD2" offset="0%"/><stop stop-color="#4274EE" offset="100%"/></linearGradient><path d="M24.002 54C10.767 54 0 39.37 0 21.388c0-.906.08-4.585.237-10.932l.085-3.45c.012-.46.217-.895.565-1.192a1.582 1.582 0 0 1 1.257-.368l2.958.419c5.76.819 11.675-.384 15.19-2.946l2.61-2.48a1.588 1.588 0 0 1 2.2.007l2.576 2.475c2.792 2.033 7.014 3.198 11.603 3.198a25.55 25.55 0 0 0 3.582-.253l2.948-.418c.448-.064.906.07 1.255.366.347.297.553.729.567 1.188l.086 3.005c.001.085.281 9.658.281 11.381C48 39.37 37.234 54 24.002 54ZM3.477 8.898l-.041 1.638C3.241 18.409 3.2 20.783 3.2 21.388c0 16.2 9.331 29.38 20.802 29.38 11.468 0 20.798-13.18 20.798-29.38 0-1.595-.266-10.806-.28-11.283L44.485 8.9l-1.177.166c-1.334.19-2.68.285-4.027.285-5.298 0-10.246-1.416-13.576-3.883a1.636 1.636 0 0 1-.156-.132l-1.557-1.495-1.58 1.502a1.857 1.857 0 0 1-.15.125c-4.171 3.09-10.995 4.536-17.604 3.597l-1.181-.167Z" id="b"/></defs><g fill-rule="nonzero" fill="none"><path d="M24 52.384c-12.351 0-22.4-13.904-22.4-30.995 0-1.513.237-10.924.247-11.325l.075-3.018 2.958.42c1.26.178 2.532.268 3.805.268 4.976 0 9.594-1.32 12.63-3.568l2.683-2.549 2.653 2.549c3.036 2.25 7.655 3.57 12.63 3.57 1.27 0 2.55-.091 3.805-.27l2.947-.417.086 3.005c.012.396.28 9.707.28 11.335 0 17.091-10.047 30.995-22.398 30.995Z" fill="url(#a)"/><g><use fill="#885F44" xlink:href="#b"/><use fill="url(#c)" xlink:href="#b"/></g><path d="M24.17 8.848v.062c.023-.017.047-.036.07-.062h-.07Z" fill="#43607D"/><path d="M24.995 8.662v.617c.23-.175.474-.36.703-.617h-.703Zm-1.024.046c.204.206.423.396.652.571v-.57h-.652Z" fill="#43607D"/><path d="M24.154 8.851c.02.02.042.04.065.057v-.057h-.065Z" fill="#43607D"/><path d="M34.488 28.412H13.512A1.405 1.405 0 0 1 12.114 27c0-.78.625-1.412 1.398-1.412h20.976c.773 0 1.398.632 1.398 1.412 0 .78-.625 1.412-1.398 1.412Z" fill="#FFB300"/><path d="M24 39.005a1.405 1.405 0 0 1-1.398-1.413V16.408c0-.78.625-1.412 1.398-1.412.773 0 1.398.632 1.398 1.412v21.184c0 .78-.625 1.413-1.398 1.413Z" fill="#FFB300"/></g></svg>