<svg viewBox="0 0 58 58" xmlns="http://www.w3.org/2000/svg" xmlns:xlink="http://www.w3.org/1999/xlink"><defs><linearGradient x1="0%" y1="50%" x2="100%" y2="50%" id="c"><stop stop-color="#382AD2" offset="0%"/><stop stop-color="#4274EE" offset="100%"/></linearGradient><linearGradient x1="0%" y1="50%" x2="100%" y2="50%" id="e"><stop stop-color="#382AD2" offset="0%"/><stop stop-color="#4274EE" offset="100%"/></linearGradient><filter x="-26.7%" y="-23.3%" width="153.3%" height="153.3%" filterUnits="objectBoundingBox" id="a"><feOffset dy="4" in="SourceAlpha" result="shadowOffsetOuter1"/><feGaussianBlur stdDeviation="10" in="shadowOffsetOuter1" result="shadowBlurOuter1"/><feColorMatrix values="0 0 0 0 0.737254902 0 0 0 0 0.737254902 0 0 0 0 0.737254902 0 0 0 0.5 0" in="shadowBlurOuter1"/></filter><rect id="b" x="1170" y="1650" width="120" height="120" rx="10"/><path d="M29.001 45.91c-8.371 0-15.182-9.162-15.182-20.425 0-.567.05-2.871.15-6.847l.053-2.16a1.013 1.013 0 0 1 1.153-.977l1.87.262c3.645.513 7.386-.24 9.61-1.845l1.65-1.553a1.012 1.012 0 0 1 1.392.004l1.63 1.55c1.766 1.274 4.436 2.003 7.34 2.003.754 0 1.516-.053 2.264-.159l1.865-.261a1.014 1.014 0 0 1 1.153.973l.054 1.882c.001.053.178 6.049.178 7.128 0 11.263-6.81 20.425-15.18 20.425ZM16.018 17.663l-.026 1.025c-.123 4.931-.149 6.418-.149 6.797 0 10.146 5.903 18.401 13.158 18.401s13.156-8.255 13.156-18.4c0-1-.168-6.769-.177-7.067l-.023-.755-.744.104c-.844.118-1.695.178-2.547.178-3.351 0-6.481-.886-8.588-2.432a1.032 1.032 0 0 1-.098-.082l-.985-.937-1 .94c-.03.029-.061.055-.094.08-2.639 1.935-6.955 2.84-11.136 2.252l-.747-.104Z" id="d"/></defs><g fill="none" fill-rule="evenodd"><path fill="#FFF" d="M-1201-1681H719v2762h-1920z"/><g transform="translate(-1201 -1681)"><use fill="#000" filter="url(#a)" xlink:href="#b"/><use fill="#FFF" xlink:href="#b"/></g><g fill-rule="nonzero"><path d="M29 44.898c-7.813 0-14.169-8.708-14.169-19.412 0-.948.15-6.842.156-7.093l.048-1.89 1.87.262c.798.112 1.602.168 2.407.169 3.148 0 6.07-.827 7.99-2.235l1.697-1.597 1.678 1.597c1.92 1.41 4.842 2.235 7.989 2.235.803 0 1.613-.056 2.406-.168l1.865-.261.054 1.882c.008.248.178 6.08.178 7.099 0 10.704-6.356 19.412-14.169 19.412Z" fill="url(#c)"/><g><use fill="#885F44" xlink:href="#d"/><use fill="url(#e)" xlink:href="#d"/></g><path d="M29.108 17.631v.04c.014-.012.03-.023.044-.04h-.044Z" fill="#43607D"/><path d="M29.63 17.515v.386c.144-.11.299-.225.444-.386h-.445Zm-.648.029c.129.129.267.248.412.357v-.357h-.412Z" fill="#43607D"/><path d="M29.097 17.633a.395.395 0 0 0 .042.036v-.036h-.042Z" fill="#43607D"/><path d="M29 56C14.112 56 2 43.888 2 29S14.112 2 29 2s27 12.112 27 27-12.112 27-27 27Zm0-52C15.215 4 4 15.215 4 29s11.215 25 25 25 25-11.215 25-25S42.785 4 29 4Z" stroke="#FFB300" fill="#FFB300"/><path d="M35.634 29.885H22.366a.884.884 0 1 1 0-1.77h13.268a.884.884 0 1 1 0 1.77Z" fill="#FFB300"/><path d="M29 36.519a.884.884 0 0 1-.885-.885V22.366a.884.884 0 1 1 1.77 0v13.268a.884.884 0 0 1-.885.885Z" fill="#FFB300"/></g></g></svg>