<svg viewBox="0 0 48 48" xmlns="http://www.w3.org/2000/svg" xmlns:xlink="http://www.w3.org/1999/xlink"><defs><linearGradient x1="0%" y1="50%" x2="100%" y2="50%" id="b"><stop stop-color="#382AD2" offset="0%"/><stop stop-color="#4274EE" offset="100%"/></linearGradient><path d="M47.797 1.28C47.661.415 47.614.378 46.72.215 45.889.06 45.059 0 44.225 0c-.816 0-1.631.056-2.442.14a40.484 40.484 0 0 0-9.521 2.16C26.8 4.258 21.982 7.178 18.08 11.504a.732.732 0 0 1-.59.26c-.057 0-.113-.004-.174-.009-1.64-.177-3.286-.46-4.932-.46h-.112c-2.935.023-5.222 1.36-6.812 3.832-.867 1.35-1.73 2.706-2.597 4.061-.806 1.257-1.631 2.496-2.414 3.767-1.11 1.807-.06 3.978 2.007 4.131 2.489.187 4.978.336 7.467.47.45.024.642.145.685.62.15 1.574.572 3.074 1.42 4.429 1.655 2.636 4.064 4.084 7.14 4.49 1.158.153 1.125.162 1.209 1.35.164 2.375.342 4.755.567 7.125.14 1.481 1.29 2.431 2.57 2.431a2.82 2.82 0 0 0 1.532-.47c2.78-1.807 5.588-3.586 8.283-5.514 2.513-1.798 3.605-4.331 3.282-7.428-.136-1.328-.249-2.66-.384-3.987-.043-.41.056-.722.38-1.015 3.942-3.59 6.754-7.935 8.676-12.867 1.608-4.126 2.57-8.383 2.705-12.812.005-.126.01-.251.01-.372.014-.76-.085-1.51-.202-2.254ZM33.05 21.88h-.051c-3.727-.028-7.07-3.344-6.99-7.01.094-4.344 3.39-7.143 7.229-7.143h.131c3.75.06 6.905 3.316 6.858 7.102-.051 3.935-3.23 7.05-7.177 7.05Z" id="a"/></defs><g fill-rule="nonzero" fill="none"><g><use fill="#000" xlink:href="#a"/><use fill="url(#b)" xlink:href="#a"/></g><path d="M16.492 41.815c-1.299 1.304-2.611 2.59-3.905 3.89-.31.311-.642.502-1.027.502-.15 0-.31-.028-.478-.093-.614-.224-.91-.675-.937-1.309-.02-.4-.01-.8-.02-1.201-.013-.475-.018-.648-.205-.648-.104 0-.258.052-.497.13-1.458.48-2.911.965-4.37 1.445-.22.074-.445.125-.66.125-.207 0-.413-.046-.62-.158-.623-.35-.857-.969-.609-1.728.483-1.485.994-2.966 1.486-4.452.216-.643.202-.657-.496-.67-.422-.005-.844 0-1.266-.02-.614-.027-1.05-.325-1.28-.903-.22-.563-.08-1.052.333-1.467 1.355-1.35 2.713-2.7 4.074-4.047.243-.242.534-.39.848-.39.033 0 .066 0 .094.004.736.01 1.144.335 1.41 1.08 1.037 2.934 2.921 5.156 5.654 6.665.605.33 1.238.6 1.894.824 1.186.4 1.453 1.541.577 2.421Z" fill="#FFB300"/></g></svg>