<svg viewBox="0 0 62 62" xmlns="http://www.w3.org/2000/svg"><defs><linearGradient x1="0%" y1="50%" x2="100%" y2="50%" id="a"><stop stop-color="#382AD2" offset="0%"/><stop stop-color="#4274EE" offset="100%"/></linearGradient></defs><g fill-rule="nonzero" fill="none"><path d="M8.474 5.536h45.052c1.959 0 2.938.98 2.938 2.938v45.052c0 1.959-.98 2.938-2.938 2.938H8.474c-1.959 0-2.938-.98-2.938-2.938V8.474c0-1.959.98-2.938 2.938-2.938Z" fill="#FFF"/><path fill="#FFB300" d="M34.321 20.482 31 26.571h-6.643l-3.321-6.089 3.321-6.089H31z"/><path fill="#FFB300" opacity=".499" d="m49.821 30.446-3.321 6.09h-6.643l-3.321-6.09 3.321-6.089H46.5z"/><path fill="#FFB300" d="m49.821 45.946-3.321 6.09h-6.643l-3.321-6.09 3.321-6.089H46.5z"/><path d="M34.321 35.982 31 42.072h-6.643l-3.321-6.09 3.321-6.09H31l3.321 6.09ZM21.036 14.79l-3.322 5.932h-6.643L7.75 14.79l3.321-5.932h6.643l3.322 5.932Zm0 15.657-3.322 5.933h-6.643L7.75 30.446l3.321-5.932h6.643l3.322 5.932Zm0 15.658-3.322 5.932h-6.643L7.75 46.104l3.321-5.933h6.643l3.322 5.933Zm13.285 5.535L31 57.571h-6.643l-3.321-5.932 3.321-5.932H31l3.321 5.932Z" fill="url(#a)"/></g></svg>