<svg viewBox="0 0 54 54" xmlns="http://www.w3.org/2000/svg" xmlns:xlink="http://www.w3.org/1999/xlink"><defs><linearGradient x1="0%" y1="50%" x2="100%" y2="50%" id="b"><stop stop-color="#382AD2" offset="0%"/><stop stop-color="#4274EE" offset="100%"/></linearGradient><path d="M52.874 3.6H1.124C.505 3.6 0 4.103 0 4.724V35.1h54V4.724c0-.621-.504-1.124-1.126-1.124Z" id="a"/></defs><g fill-rule="nonzero" fill="none"><path fill="#CCD1D9" d="M36 50.4H18l2.244-10.797 13.508-.003z"/><path d="M54 40.371c0 .617-.504 1.113-1.126 1.113H1.124A1.118 1.118 0 0 1 0 40.371V4.713C0 4.098.503 3.6 1.125 3.6h51.75A1.12 1.12 0 0 1 54 4.713v35.658ZM36 50.4H18a1.12 1.12 0 0 1-1.125-1.113A1.12 1.12 0 0 1 18 48.17h18c.62 0 1.125.5 1.125 1.117A1.12 1.12 0 0 1 36 50.4Z" fill="#E6E9ED"/><g><use fill="#ED5564" xlink:href="#a"/><use fill="url(#b)" xlink:href="#a"/></g><path d="M52.884 3.6H42.84v31.498H54V4.724c0-.621-.5-1.124-1.116-1.124ZM28.332 38.473c0 .623-.5 1.127-1.116 1.127a1.122 1.122 0 0 1-1.116-1.127c0-.62.5-1.124 1.116-1.124a1.12 1.12 0 0 1 1.116 1.124Z" fill="#434A54"/><path fill="#656D78" d="M43.2 17.1H54v1.8H43.2z"/><path fill="#FFB300" d="M18.9 25.2h3.646L29.7 14.4h-3.657z"/><path d="M22.472 14.4c-1.974 0-3.572 1.72-3.572 3.846 0 1.437.73 2.69 1.826 3.354l4.474-7.2h-2.728ZM26.128 25.2c1.974 0 3.572-1.72 3.572-3.846 0-1.437-.73-2.69-1.826-3.354L23.4 25.2h2.728Z" fill="#FFD12A"/></g></svg>