<svg viewBox="0 0 88 88" xmlns="http://www.w3.org/2000/svg" xmlns:xlink="http://www.w3.org/1999/xlink"><defs><linearGradient x1="0%" y1="50%" x2="100%" y2="50%" id="b"><stop stop-color="#382AD2" offset="0%"/><stop stop-color="#4274EE" offset="100%"/></linearGradient><path d="M22 44.458a22.458 22.458 0 1 0 44.917 0C66.917 32.055 56.862 22 44.458 22 32.055 22 22 32.055 22 44.458Z" id="a"/></defs><g fill-rule="nonzero" fill="none"><g><use fill="#003DF0" xlink:href="#a"/><use fill="url(#b)" xlink:href="#a"/></g><path d="M64.964 36.55a.5.5 0 0 1 .11.017C62.15 28.491 54.668 22.605 45.727 22c3.72 1.03 3.78 4.924.827 4.464a101.64 101.64 0 0 1-.332 3.987c-.24 2.308-2.978 1.66-3.737 2.811-.742 1.124 1.373 2.317 3.762 1.763.64-.144.051-.843.495-.988 1.314-.443 2.96-.272 3.037-.068.145.366-1.433 2.87-3.122 5.946-.427.775 0 2.207 0 3.024 0 6.918-3.191-1.772-3.694-1.44-.538.359-2.662-.544-3.55-.468-.904.077-.46 1.934-1.373 1.908-1.68-.042-1.322-.451-1.271.17.06.776.332 2.727.332 5.453 0 .843 1.818-.256 3.063-.205 1.408.052 2.304 1.21 3.208 1.645 1.715.817 3.276 3.186 4.47 3.288 1.195.102.35 1.96 1.69 1.755 1.697-.256 3.66 1.89 1.433 3.825-1.544 1.337-1.903 3.092-2.636 6.236.819-.213 1.305 0 1.493.451a22.234 22.234 0 0 0 15.262-13.92c-1.808 2.522-4.334 2.922-3.685 1.048-.683-1.107-1.732-2.658-2.833-3.68-2.09-1.951-3.728-5.367 2.645-10.257-1.194-3.194 2.312-5.801 3.754-2.198ZM43.277 61.74s-5.238-3.73-5.238-6.159c0-2.436.665-3.56 0-3.56-1.34 0-2.56.8-2.875 0-.896-2.318-2.773-3.025-2.875-3.025-3.55-.068-3.686-4.242-3.686-8.144 0-1.184-1.33-1.286-2.329-1.882-.554 1.542-2.824 1.567-3.796.536a22.989 22.989 0 0 0-.418 2.897c-.017.187-.026.375-.034.553v.017c-.009.188-.017.367-.017.554v.017c-.009.188-.009.375-.009.562a11.62 11.62 0 0 0 .017.708c0 .127.009.255.017.391 0 .06.009.111.009.17l.025.384c0 .051.009.102.009.153.008.137.025.273.034.41 0 .042.008.076.008.119l.052.46c0 .017.008.034.008.06C23.442 56.713 31.06 64.491 40.752 66c.742-.213 1.646-.34 2.696-.315-.128-1.04-.196-2.343-.17-3.944Z" fill="#EBF1F7"/><path d="M19.011 61.417c-1.603 0-2.64-.433-3.138-1.306-1.08-1.885.857-4.963 5.925-9.407a.851.851 0 0 1 1.21.087.868.868 0 0 1-.086 1.219c-5.103 4.478-5.874 6.692-5.557 7.236.309.545 2.59.986 9.004-1.245 5.609-1.945 12.632-5.308 19.775-9.467 7.144-4.159 13.55-8.612 18.017-12.537 5.12-4.487 5.883-6.7 5.566-7.237-.317-.544-2.616-.985-9.099 1.271a.857.857 0 0 1-1.089-.536.868.868 0 0 1 .532-1.098c6.414-2.24 10.059-2.403 11.14-.501 1.08 1.885-.858 4.963-5.926 9.407-4.554 3.994-11.045 8.516-18.292 12.727-7.246 4.21-14.364 7.626-20.075 9.606-3.413 1.184-6.037 1.78-7.907 1.78Z" fill="#FFB300"/><path d="M43.996 50.417c-8.395 0-16.29-.628-22.239-1.763-6.62-1.272-9.84-2.924-9.84-5.06 0-2.136 3.22-3.789 9.84-5.06a.855.855 0 0 1 1.008.67.843.843 0 0 1-.68.991c-6.681 1.28-8.446 2.78-8.446 3.399 0 .618 1.765 2.119 8.445 3.398 5.846 1.12 13.62 1.738 21.912 1.738 8.29 0 16.065-.619 21.91-1.738 6.682-1.28 8.447-2.78 8.447-3.398 0-.619-1.782-2.128-8.54-3.416a.843.843 0 0 1-.681-.992.855.855 0 0 1 1.007-.67c6.69 1.272 9.944 2.933 9.944 5.078 0 2.136-3.22 3.788-9.84 5.06-5.958 1.135-13.853 1.763-22.247 1.763Z" fill="#FFB300"/></g></svg>