<svg viewBox="0 0 62 62" xmlns="http://www.w3.org/2000/svg" xmlns:xlink="http://www.w3.org/1999/xlink"><defs><linearGradient x1="0%" y1="50%" x2="100%" y2="50%" id="b"><stop stop-color="#382AD2" offset="0%"/><stop stop-color="#4274EE" offset="100%"/></linearGradient><path d="M53.93 24.523 38.475 9.068a9.79 9.79 0 0 0-13.847 0L9.103 24.523a9.79 9.79 0 0 0 0 13.917l15.525 15.525a9.79 9.79 0 0 0 13.847 0L53.93 38.44a9.79 9.79 0 0 0 0-13.917Zm-1.468 8.322h-5.595a4.042 4.042 0 0 1-.979 1.567L34.461 45.839c-.442.45-.983.79-1.58.993v5.595a1.399 1.399 0 1 1-2.798 0v-5.595a4.042 4.042 0 0 1-1.566-.979L17.09 34.426a4.042 4.042 0 0 1-.994-1.58h-5.594a1.399 1.399 0 0 1 0-2.798h5.594c.201-.59.537-1.127.98-1.566l11.427-11.428c.442-.45.983-.79 1.58-.993v-5.594a1.399 1.399 0 1 1 2.797 0v5.594c.591.201 1.127.536 1.567.98l11.427 11.427c.45.442.79.983.993 1.58h5.595a1.399 1.399 0 0 1 0 2.797Z" id="a"/></defs><g fill-rule="nonzero" fill="none"><path d="M32.516 19.016a1.408 1.408 0 0 0-1.999 0l-11.5 11.501a1.408 1.408 0 0 0 0 2l11.5 11.5a1.408 1.408 0 0 0 2 0l11.5-11.5a1.408 1.408 0 0 0 0-2l-11.5-11.5ZM24 32.924a1.408 1.408 0 0 1-1-2.407l4.533-4.533a1.413 1.413 0 0 1 1.999 2l-4.547 4.532c-.262.26-.616.407-.985.408Zm11.5-2.956L28.97 36.5a1.408 1.408 0 0 1-1.985-2l6.518-6.517a1.408 1.408 0 0 1 1.998 1.985Z" fill="#FFB300"/><g><use fill="#00F" xlink:href="#a"/><use fill="url(#b)" xlink:href="#a"/></g></g></svg>