<svg viewBox="0 0 170 27" xmlns="http://www.w3.org/2000/svg"><g fill-rule="nonzero" fill="none"><g fill="#333"><path d="M35.29 16.22c1.57 1.403 3.321 2.106 5.51 2.106 2.266 0 3.863-1.04 3.863-2.393 0-1.378-1.468-2.08-4.532-2.964-2.91-.832-5.898-1.976-5.898-5.226 0-3.198 2.73-5.045 6.413-5.045 2.446 0 4.944 1.118 6.49 2.887l-2.087 2.08c-1.159-1.3-2.832-2.002-4.61-2.002-2.06 0-3.27.78-3.27 2.054 0 1.118 1.313 1.69 4.198 2.522 3.322.962 6.206 2.314 6.206 5.616 0 3.303-3.168 5.46-6.902 5.46-2.961 0-5.408-1.091-7.39-2.937l2.008-2.159ZM51.745 8.47v6.943c0 2.08 1.107 3.095 2.652 3.095 1.7 0 3.013-1.275 3.013-3.25V8.47h2.936V21.03H57.41v-1.352a5.125 5.125 0 0 1-3.734 1.612c-2.884 0-4.867-2.054-4.867-5.253V8.471h2.936ZM62.252 8.47h2.936v1.613c.824-1.04 2.266-1.872 3.837-1.872 3.58 0 6.18 2.912 6.18 6.526 0 3.589-2.575 6.527-6.18 6.527-1.571 0-3.013-.832-3.837-1.846v7.566h-2.936V8.471Zm2.936 6.267c0 1.95 1.596 3.563 3.528 3.563 1.931 0 3.528-1.613 3.528-3.563 0-1.95-1.597-3.562-3.528-3.562-1.932 0-3.528 1.612-3.528 3.562ZM82.133 8.21c3.528 0 5.949 2.627 5.949 6.345 0 .468-.078 1.014-.13 1.508h-9.244c.489 1.56 1.88 2.523 3.734 2.523 1.184 0 2.343-.416 3.09-1.249l1.854 1.873c-1.184 1.326-2.936 2.054-4.97 2.054-3.76 0-6.618-2.834-6.618-6.527 0-3.692 2.73-6.526 6.335-6.526Zm-3.477 5.565h6.67c-.257-1.794-1.57-2.886-3.245-2.886-1.725 0-3.193 1.144-3.425 2.886ZM89.24 21.03V8.47h2.936V9.9c.85-1.013 2.138-1.69 3.734-1.69v2.809c-.103-.026-.231-.026-.334-.026-1.855 0-3.4 1.326-3.4 3.25v6.787H89.24ZM96.786 2.932h2.936v7.099c.824-.988 2.266-1.82 3.837-1.82 3.58 0 6.18 2.938 6.18 6.526 0 3.589-2.575 6.527-6.18 6.527-1.571 0-3.013-.832-3.837-1.872v1.612h-2.936V2.932Zm2.936 11.805c0 1.95 1.596 3.563 3.528 3.563 1.931 0 3.528-1.613 3.528-3.563 0-1.95-1.597-3.562-3.528-3.562-1.932 0-3.528 1.612-3.528 3.562ZM113.911 8.47v6.943c0 2.08 1.108 3.095 2.653 3.095 1.7 0 3.013-1.275 3.013-3.25V8.47h2.936V21.03h-2.936v-1.352a5.125 5.125 0 0 1-3.734 1.612c-2.885 0-4.868-2.054-4.868-5.253V8.471h2.936ZM123.26 8.47h2.085v-.675c0-3.614 1.906-5.097 4.97-5.097h1.03v2.86h-.772c-1.468 0-2.292.52-2.292 2.445v.468h5.305v-.676c0-3.614 1.906-5.097 4.97-5.097h1.03v2.86h-.772c-1.468 0-2.292.52-2.292 2.445v.468h3.064v2.964h-3.064v9.595h-2.936v-9.595h-5.305v9.595h-2.936v-9.595h-2.086V8.471ZM145.612 8.21c3.529 0 5.95 2.627 5.95 6.345 0 .468-.078 1.014-.13 1.508h-9.245c.49 1.56 1.88 2.523 3.734 2.523 1.185 0 2.344-.416 3.09-1.249l1.855 1.873c-1.185 1.326-2.936 2.054-4.97 2.054-3.76 0-6.619-2.834-6.619-6.527 0-3.692 2.73-6.526 6.335-6.526Zm-3.476 5.565h6.67c-.258-1.794-1.571-2.886-3.245-2.886-1.7 0-3.168 1.144-3.425 2.886ZM152.72 21.03V8.47h2.936V9.9c.85-1.013 2.137-1.69 3.734-1.69v2.809c-.103-.026-.232-.026-.335-.026-1.854 0-3.4 1.326-3.4 3.25v6.787h-2.935ZM161.115 17.103c.979.858 2.37 1.483 3.76 1.483 1.236 0 2.215-.52 2.215-1.197 0-1.066-1.57-1.378-2.498-1.638-2.034-.572-4.816-1.17-4.816-3.874 0-2.132 2.06-3.666 4.867-3.666 1.932 0 3.735.728 4.945 1.846l-1.622 2.002c-.902-.78-2.138-1.144-3.323-1.144-1.287 0-1.905.442-1.905 1.014 0 .676 1.236.962 2.575 1.274 2.472.572 4.687 1.456 4.687 4.16 0 2.263-2.215 3.927-5.228 3.927-2.06 0-3.94-.754-5.434-2.132l1.777-2.055Z"/></g><path fill="#FFB300" d="M0 24.286h8.198L24.286 0h-8.224z"/><path d="M8.044 0C3.598 0 0 3.636 0 8.13a8.131 8.131 0 0 0 4.112 7.09L14.186 0H8.044ZM16.216 24.286c4.446 0 8.044-3.637 8.044-8.13a8.131 8.131 0 0 0-4.112-7.091l-10.074 15.22h6.142Z" fill="#FFD12A"/></g></svg>